<?xml version="1.0" encoding="UTF-8"?>
<svg id="_レイヤー_2" data-name="レイヤー 2" xmlns="http://www.w3.org/2000/svg" viewBox="0 0 99.34 76.43">
  <defs>
    <style>
      .cls-1 {
        fill: none;
      }

      .cls-1, .cls-2 {
        stroke-width: 0px;
      }

      .cls-2 {
        fill: #74bcba;
      }
    </style>
  </defs>
  <g id="logo">
    <g>
      <g>
        <path class="cls-2" d="m67.41,31.15c.74,0,1.33-.6,1.33-1.33s-.59-1.33-1.33-1.33-1.33.6-1.33,1.33.59,1.33,1.33,1.33Z"/>
        <path class="cls-2" d="m71.51,31.15c.73,0,1.33-.6,1.33-1.33s-.59-1.33-1.33-1.33-1.33.6-1.33,1.33.6,1.33,1.33,1.33Z"/>
        <path class="cls-2" d="m74.84,19.02H24.5c-1.05,0-1.9.85-1.9,1.9v12.03c0,2.63,2.07,5.31,2.07,5.31.58.73,1.31,1.17,1.75,1.17h10.55c-.21,3.7-1.27,9.3-5.49,11.5l-1.2-2.17-2.16,5.65,5.93,1.16-1.23-2.23c5.43-2.88,6.69-9.64,6.92-13.92h8.55v13.34h-2.74l4.11,4.64,4.11-4.64h-2.73v-13.34h8.56c.23,4.28,1.48,11.04,6.91,13.92l-1.23,2.23,5.93-1.16-2.16-5.65-1.2,2.17c-4.21-2.2-5.26-7.81-5.48-11.5h10.54c.44,0,1.17-.44,1.75-1.17,0,0,2.07-2.69,2.07-5.31v-12.03c0-1.05-.85-1.9-1.9-1.9Zm-35.06,18.51c0-.46-.02-.84-.03-1.14h8.54v1.14h-8.51Zm11.27-1.14h8.55c-.02.3-.03.69-.03,1.14h-8.52v-1.14Zm22.13.7c-.19.23-.37.37-.47.44h-10.38c0-.48.02-.87.03-1.14h8.87v-1.14H28.11v1.14h8.88c.01.27.03.66.03,1.14h-10.39c-.1-.07-.28-.21-.47-.44-.35-.46-1.1-1.65-1.46-2.88h49.94c-.37,1.25-1.13,2.44-1.46,2.88Zm1.66-4.79H24.5v-11.38h50.34v11.38Z"/>
      </g>
      <rect class="cls-1" width="99.34" height="76.43"/>
    </g>
  </g>
</svg>